# xmcd
#
# Track frame offsets: 
#        150
#        15530
#        29886
#        62351
#        79550
#        96753
#        111940
#        128539
#        149506
#        165993
#        180512
#        195096
#        209773
#        224215
#        241947
#        257256
#        273788
#        292080
#
# Disc length: 4063 seconds
#
# Revision: 0
# Processed by: cddbd v1.4PL0 Copyright (c) Steve Scherf et al.
# Submitted via: ExactAudioCopy v0.95a3
#
DISCID=fd0fdd12
DTITLE=TWINS - CD2
DYEAR=1900
DGENRE=
TTITLE0=女校男生
TTITLE1=爱情当入樽
TTITLE2=宝686
TTITLE3=恋爱大过天
TTITLE4=形男索女
TTITLE5=换季
TTITLE6=不要缠着我
TTITLE7=盲头乌龟
TTITLE8=等你来光临
TTITLE9=着睡衣跳舞
TTITLE10=快熟时代
TTITLE11=不要一个人
TTITLE12=青春GIVE
TTITLE13=学生手册
TTITLE14=涉谷车站兄
TTITLE15=有种爱
TTITLE16=热爱的高温
TTITLE17=因为我高兴
EXTD=
EXTT0=
EXTT1=
EXTT2=
EXTT3=
EXTT4=
EXTT5=
EXTT6=
EXTT7=
EXTT8=
EXTT9=
EXTT10=
EXTT11=
EXTT12=
EXTT13=
EXTT14=
EXTT15=
EXTT16=
EXTT17=
PLAYORDER=
